HIERARCHY
ROOT Hips
{
    OFFSET 0.0 0.0 0.0
    CHANNELS 6 Xposition Yposition Zposition Zrotation Xrotation Yrotation
    JOINT Spine
    {
        OFFSET 0.0 5.0 0.0
        CHANNELS 3 Zrotation Xrotation Yrotation
        JOINT Chest
        {
            OFFSET 0.0 5.0 0.0
            CHANNELS 3 Zrotation Xrotation Yrotation
            JOINT Neck
            {
                OFFSET 0.0 5.0 0.0
                CHANNELS 3 Zrotation Xrotation Yrotation
                JOINT Head
                {
                    OFFSET 0.0 3.0 0.0
                    CHANNELS 3 Zrotation Xrotation Yrotation
                    End Site
                    {
                        OFFSET 0.0 3.0 0.0
                    }
                }
            }
            JOINT LeftShoulder
            {
                OFFSET -3.0 4.0 0.0
                CHANNELS 3 Zrotation Xrotation Yrotation
                JOINT LeftUpperArm
                {
                    OFFSET -5.0 0.0 0.0
                    CHANNELS 3 Zrotation Xrotation Yrotation
                    JOINT LeftLowerArm
                    {
                        OFFSET -5.0 0.0 0.0
                        CHANNELS 3 Zrotation Xrotation Yrotation
                        JOINT LeftHand
                        {
                            OFFSET -3.0 0.0 0.0
                            CHANNELS 3 Zrotation Xrotation Yrotation
                            End Site
                            {
                                OFFSET -2.0 0.0 0.0
                            }
                        }
                    }
                }
            }
            JOINT RightShoulder
            {
                OFFSET 3.0 4.0 0.0
                CHANNELS 3 Zrotation Xrotation Yrotation
                JOINT RightUpperArm
                {
                    OFFSET 5.0 0.0 0.0
                    CHANNELS 3 Zrotation Xrotation Yrotation
                    JOINT RightLowerArm
                    {
                        OFFSET 5.0 0.0 0.0
                        CHANNELS 3 Zrotation Xrotation Yrotation
                        JOINT RightHand
                        {
                            OFFSET 3.0 0.0 0.0
                            CHANNELS 3 Zrotation Xrotation Yrotation
                            End Site
                            {
                                OFFSET 2.0 0.0 0.0
                            }
                        }
                    }
                }
            }
        }
    }
    JOINT LeftUpLeg
    {
        OFFSET -3.0 0.0 0.0
        CHANNELS 3 Zrotation Xrotation Yrotation
        JOINT LeftLeg
        {
            OFFSET 0.0 -8.0 0.0
            CHANNELS 3 Zrotation Xrotation Yrotation
            JOINT LeftFoot
            {
                OFFSET 0.0 -8.0 0.0
                CHANNELS 3 Zrotation Xrotation Yrotation
                End Site
                {
                    OFFSET 0.0 -2.0 2.0
                }
            }
        }
    }
    JOINT RightUpLeg
    {
        OFFSET 3.0 0.0 0.0
        CHANNELS 3 Zrotation Xrotation Yrotation
        JOINT RightLeg
        {
            OFFSET 0.0 -8.0 0.0
            CHANNELS 3 Zrotation Xrotation Yrotation
            JOINT RightFoot
            {
                OFFSET 0.0 -8.0 0.0
                CHANNELS 3 Zrotation Xrotation Yrotation
                End Site
                {
                    OFFSET 0.0 -2.0 2.0
                }
            }
        }
    }
}

MOTION
Frames: 15
Frame Time: 0.03333333333333333
42.992252 94.293875 0.074611 -179.309989 -0.966798 -54.485520 -179.309989 -0.966798 -54.485520 173.252839 8.041909 -50.058628 0.000000 0.000000 0.000000 0.000000 -152.363478 -178.009662 0.000000 0.000000 0.000000 -43.436812 -153.606593 152.340686 -91.329301 -137.048497 -178.762479 0.000000 0.000000 0.000000 0.000000 0.000000 0.000000 -166.575647 -131.845122 -102.065163 -105.439537 -126.600459 -159.600747 0.000000 0.000000 0.000000 88.066307 86.723801 30.532322 90.658061 60.050853 -1.142033 0.000000 0.000000 0.000000 89.452085 78.770390 2.757639 90.814836 71.628709 -2.452259 0.000000 0.000000 0.000000
43.127389 94.479838 0.076073 178.643073 1.157137 -40.454856 178.643073 1.157137 -40.454856 168.957130 8.492657 -37.420606 0.000000 0.000000 0.000000 0.000000 -151.357992 -177.599653 0.000000 0.000000 0.000000 -7.250375 -176.911285 157.016149 -102.793084 -141.645241 -169.813801 0.000000 0.000000 0.000000 0.000000 0.000000 0.000000 150.614564 158.975063 -145.684865 -101.265208 -153.525061 -174.334630 0.000000 0.000000 0.000000 88.286435 82.279871 12.444659 90.038422 54.570432 -0.054006 0.000000 0.000000 0.000000 89.177309 65.245564 1.783738 90.796897 55.387214 -1.154534 0.000000 0.000000 0.000000
43.185726 94.329259 0.067791 177.726141 2.069423 -42.302525 177.726141 2.069423 -42.302525 170.480915 7.921550 -39.685846 0.000000 0.000000 0.000000 0.000000 -155.569690 -176.220516 0.000000 0.000000 0.000000 32.127151 161.184163 151.515355 -115.877280 -151.091886 -165.004213 0.000000 0.000000 0.000000 0.000000 0.000000 0.000000 121.290418 132.890650 -146.804728 -103.003952 -155.439972 -173.975411 0.000000 0.000000 0.000000 88.535040 86.111377 20.617962 89.927993 47.532705 0.078672 0.000000 0.000000 0.000000 89.417142 65.652691 1.287878 90.512476 47.901086 -0.567186 0.000000 0.000000 0.000000
43.583198 94.232959 0.056301 176.889132 2.673833 -40.672218 176.889132 2.673833 -40.672218 163.829351 12.120704 -36.524485 0.000000 0.000000 0.000000 0.000000 -151.621200 -172.346014 0.000000 0.000000 0.000000 53.814360 146.592556 154.243864 -159.240409 -174.262710 -165.154894 0.000000 0.000000 0.000000 0.000000 0.000000 0.000000 104.695328 102.247600 -129.615404 -149.019740 -172.383690 -167.444111 0.000000 0.000000 0.000000 89.592813 85.038299 4.679924 89.286940 44.433617 0.699101 0.000000 0.000000 0.000000 88.542956 70.504879 4.109506 89.255264 51.343924 0.931015 0.000000 0.000000 0.000000
43.942007 93.863359 0.056814 174.642048 4.587316 -40.547035 174.642048 4.587316 -40.547035 160.973422 14.661798 -37.187326 0.000000 0.000000 0.000000 0.000000 -150.089386 -171.221419 0.000000 0.000000 0.000000 57.687235 140.087528 152.117845 144.146681 159.411642 -152.533591 0.000000 0.000000 0.000000 0.000000 0.000000 0.000000 98.405509 93.402292 -111.916613 166.908187 176.645611 -165.854142 0.000000 0.000000 0.000000 89.048100 84.297567 9.447042 88.211715 40.920598 1.550311 0.000000 0.000000 0.000000 87.733976 66.048580 5.090435 88.318331 45.755048 1.726559 0.000000 0.000000 0.000000
45.747240 91.660723 0.016427 170.032588 4.934498 -26.163693 170.032588 4.934498 -26.163693 158.671695 12.839135 -30.272705 0.000000 0.000000 0.000000 0.000000 -141.888955 -165.370892 0.000000 0.000000 0.000000 85.053268 94.380894 131.513258 125.062962 109.088507 -116.246325 0.000000 0.000000 0.000000 0.000000 0.000000 0.000000 91.072305 84.938515 -11.932699 116.228947 153.723262 -166.328160 0.000000 0.000000 0.000000 116.349455 144.705979 -160.678412 86.025187 46.331252 4.163299 0.000000 0.000000 0.000000 114.917879 147.371519 -163.436128 84.301106 57.359688 8.855576 0.000000 0.000000 0.000000
48.384424 90.022290 0.018816 -174.830830 -2.177309 -22.795523 -174.830830 -2.177309 -22.795523 159.664627 10.222001 -25.945609 0.000000 0.000000 0.000000 0.000000 -138.624085 -160.046426 0.000000 0.000000 0.000000 94.083355 95.141782 -141.572837 116.533085 92.177020 -94.353820 0.000000 0.000000 0.000000 0.000000 0.000000 0.000000 88.140701 85.748464 23.589660 103.666626 148.981636 -171.681759 0.000000 0.000000 0.000000 115.122310 142.548021 -160.242593 85.268711 49.568244 5.548256 0.000000 0.000000 0.000000 109.231416 141.926193 -164.715554 83.078270 66.819697 15.828679 0.000000 0.000000 0.000000
50.058702 90.533909 0.024438 -178.304357 -0.674266 -21.680211 -178.304357 -0.674266 -21.680211 156.815279 8.088261 -18.356701 0.000000 0.000000 0.000000 0.000000 -129.431462 -148.685077 0.000000 0.000000 0.000000 93.547580 101.190934 -162.600892 141.579347 68.398584 -72.564384 0.000000 0.000000 0.000000 0.000000 0.000000 0.000000 85.166076 89.581636 85.065118 102.093298 132.768010 -166.958129 0.000000 0.000000 0.000000 140.751193 168.925711 -166.527720 87.640238 56.095284 3.508666 0.000000 0.000000 0.000000 110.845562 153.891066 -169.429438 79.778168 75.459826 34.808623 0.000000 0.000000 0.000000
52.130529 92.902771 0.029796 178.969631 0.352672 -18.893256 178.969631 0.352672 -18.893256 164.283235 4.909364 -16.974176 0.000000 0.000000 0.000000 0.000000 -135.165873 -147.943803 0.000000 0.000000 0.000000 98.657276 93.334631 -110.940795 117.067363 69.953727 -54.471240 0.000000 0.000000 0.000000 0.000000 0.000000 0.000000 86.825699 83.413428 25.655061 102.119094 141.071672 -170.160468 0.000000 0.000000 0.000000 126.158554 150.305287 -157.376571 83.634771 52.288076 8.209493 0.000000 0.000000 0.000000 113.378384 148.143717 -164.964152 76.185539 61.349220 24.229977 0.000000 0.000000 0.000000
53.516442 95.254216 0.045361 178.472865 0.509531 -18.447746 178.472865 0.509531 -18.447746 162.269812 4.928457 -15.093841 0.000000 0.000000 0.000000 0.000000 -134.500432 -146.025719 0.000000 0.000000 0.000000 97.910898 100.221667 -142.381825 122.490565 64.468541 -53.128916 0.000000 0.000000 0.000000 0.000000 0.000000 0.000000 88.614185 86.669477 22.573023 100.592645 142.324874 -171.782741 0.000000 0.000000 0.000000 123.853444 147.086759 -156.530693 82.634435 52.164968 9.449618 0.000000 0.000000 0.000000 117.337800 150.550195 -163.727877 74.066254 62.354674 28.592581 0.000000 0.000000 0.000000
53.521979 95.782262 0.062557 178.431759 0.545978 -19.191479 178.431759 0.545978 -19.191479 160.125730 5.163207 -14.034440 0.000000 0.000000 0.000000 0.000000 -134.840251 -142.489849 0.000000 0.000000 0.000000 98.643679 97.623194 -131.361956 121.988809 72.883835 -63.755056 0.000000 0.000000 0.000000 0.000000 0.000000 0.000000 88.814883 87.241169 23.233907 94.205806 147.731277 -177.341542 0.000000 0.000000 0.000000 98.168958 115.639111 -163.348802 84.821440 48.523149 5.853617 0.000000 0.000000 0.000000 110.644323 142.872053 -164.080306 77.687017 61.495776 21.897046 0.000000 0.000000 0.000000
56.349322 96.038416 0.067525 179.564504 0.165007 -20.751046 179.564504 0.165007 -20.751046 158.153021 5.263769 -12.941521 0.000000 0.000000 0.000000 0.000000 -139.975498 -143.554810 0.000000 0.000000 0.000000 98.140343 96.044981 -126.514067 116.592756 78.276595 -67.484480 0.000000 0.000000 0.000000 0.000000 0.000000 0.000000 86.232832 77.745167 16.864030 89.532180 132.224780 179.484517 0.000000 0.000000 0.000000 99.176052 106.130614 -150.815179 85.214225 37.557871 3.683439 0.000000 0.000000 0.000000 113.973362 138.396414 -158.453524 77.618357 53.088605 16.291705 0.000000 0.000000 0.000000
57.142434 97.070217 0.059515 176.250297 1.625113 -23.407542 176.250297 1.625113 -23.407542 157.393520 5.965063 -14.086692 0.000000 0.000000 0.000000 0.000000 -138.415165 -141.927734 0.000000 0.000000 0.000000 98.372672 96.728465 -128.715033 116.415225 81.500152 -73.255515 0.000000 0.000000 0.000000 0.000000 0.000000 0.000000 86.441460 73.295643 11.707517 84.330261 107.175118 162.192190 0.000000 0.000000 0.000000 95.616214 103.632918 -157.929647 88.236652 34.101535 1.194149 0.000000 0.000000 0.000000 110.367469 145.189957 -165.526600 78.573490 46.502929 12.024778 0.000000 0.000000 0.000000
58.341864 96.005070 0.050329 177.014163 1.113372 -20.435076 177.014163 1.113372 -20.435076 154.000166 6.041236 -12.242774 0.000000 0.000000 0.000000 0.000000 -136.527517 -137.359060 0.000000 0.000000 0.000000 96.487199 96.744398 -136.123541 112.407924 75.509567 -57.921541 0.000000 0.000000 0.000000 0.000000 0.000000 0.000000 82.479825 69.467440 19.415923 104.217743 116.193641 -152.748954 0.000000 0.000000 0.000000 98.851492 111.652327 -158.580997 87.322608 35.517795 1.911703 0.000000 0.000000 0.000000 134.059304 161.907432 -162.455584 76.059014 58.513898 22.062818 0.000000 0.000000 0.000000
58.039629 93.231118 0.050926 175.995059 1.556098 -21.206596 175.995059 1.556098 -21.206596 155.866556 6.195261 -13.619701 0.000000 0.000000 0.000000 0.000000 -138.552110 -138.774474 0.000000 0.000000 0.000000 93.067308 95.440151 -150.634848 110.243944 78.841262 -61.859336 0.000000 0.000000 0.000000 0.000000 0.000000 0.000000 81.726018 65.622688 17.792237 120.306754 80.714736 -74.373286 0.000000 0.000000 0.000000 94.620854 109.983681 -167.469117 80.966544 35.153399 6.388044 0.000000 0.000000 0.000000 102.812825 126.372015 -162.839628 73.102843 49.850239 19.804055 0.000000 0.000000 0.000000
